<svg viewBox="0 0 330 100" xmlns="http://www.w3.org/2000/svg"><path d="M161.95 76.426h1.96l10.1 13.926V76.426h1.733v16.889h-1.644l-10.416-14.337v14.337h-1.733v-16.89zm18.105 0h11.169v1.71h-9.37v5.582h9.142v1.688h-9.141v6.268h9.46v1.64h-11.26V76.427zm20.215 1.71h-6.336v-1.71h14.476v1.71h-6.337v15.182h-1.802V78.136zm10.33-1.71h1.847l4.443 13.97 4.538-13.97h1.55l4.512 13.97 4.468-13.97h1.732l-5.426 17.003h-1.546l-4.56-14.062-4.537 14.062h-1.572l-5.448-17.003z" fill="#fff"/><g fill="#fff"><path d="M250.517 84.772c0-4.56-2.118-7.02-6.725-7.02-4.582 0-6.679 2.46-6.679 7.02 0 4.582 2.097 7.045 6.679 7.045 4.607 0 6.725-2.463 6.725-7.045m-15.203-.022c0-6.018 3.077-8.706 8.478-8.706 5.426 0 8.525 2.688 8.525 8.706 0 6.04-3.1 8.73-8.525 8.73-5.401 0-8.478-2.69-8.478-8.73m27.977-.061c2.394 0 3.874-.73 3.874-3.396 0-2.622-1.436-3.305-3.94-3.305h-5.496v6.7h5.562zm-.5 1.64h-5.062v6.885h-1.755v-16.89h7.295c3.92 0 5.698 1.572 5.698 4.924 0 2.916-1.391 4.626-4.332 5.012l4.08 6.954H266.8l-4.01-6.884zm15.134-2.057l-3.374 3.69v5.268h-1.755V76.341h1.755v9.322l8.548-9.322h2.074l-6.062 6.632 6.884 10.257h-2.03l-6.04-8.958zm9.58 7.248l.911-1.366a10.919 10.919 0 006.04 1.707c3.488 0 5.037-.98 5.037-3.304 0-2.394-2.004-2.735-5.037-3.282-3.646-.639-6.109-1.256-6.109-4.671 0-3.263 2.097-4.538 6.11-4.538 2.646 0 4.537.592 5.88 1.506l-.957 1.457c-1.208-.797-3.008-1.321-4.924-1.321-3.03 0-4.329.844-4.329 2.849 0 2.143 1.755 2.552 4.765 3.099 3.69.66 6.356 1.208 6.356 4.832 0 3.351-2.14 4.967-6.745 4.967-2.552 0-4.856-.522-6.997-1.935M318.912 6.519c-23.745 0-24.753 10.638-24.753 25.647v36.847h5.598V32.166c0-11.313-.447-20.385 19.155-20.385 2.1 0 3.963.111 5.64.308V6.755a64.018 64.018 0 00-5.64-.236M41.964 45.035V7.738h5.712v37.408c0 10.752-.111 19.824 19.6 19.824 19.599 0 19.152-9.072 19.152-20.385V7.738h5.6v36.847c0 15.009-1.01 25.65-24.753 25.65-23.856 0-25.311-10.641-25.311-25.2m109.604-13.33v37.297h-5.712V31.594c0-10.752.111-19.824-19.6-19.824-19.602 0-19.152 9.072-19.152 20.385v36.847h-5.598V32.155c0-15.009 1.008-25.647 24.75-25.647 23.857 0 25.312 10.638 25.312 25.197m10.394-23.853h5.482v61.15h-5.482V7.852zm44.458 34.406c9.891 0 14.807-4.821 14.807-14.56 0-9.733-5.304-14.356-15.051-14.356H183.19v28.916h23.23zM177.71 7.855h28.627c14.195 0 20.632 7.056 20.632 19.599 0 12.627-6.353 20.302-20.71 20.302h-23.068v21.249h-5.481V7.855z"/></g><path d="M238.965 34.066h41.662c-.558-12.207-1.344-22.624-19.152-22.624-17.134 0-21.838 9.297-22.51 22.624m-5.6 4.146c0-18.03 5.153-31.92 28.227-31.92 23.853 0 24.636 16.014 24.525 32.925h-47.263c.111 14.898 3.805 25.986 23.182 25.986 10.305 0 15.009-2.802 20.05-6.495l3.131 4.143c-5.598 4.143-12.204 7.392-23.181 7.392-24.19 0-28.672-14-28.672-32.031M7.574 82.272c23.743 0 24.754-10.637 24.754-25.647V7.741h-5.601v48.884c0 11.31.447 20.386-19.152 20.386-.742 0-1.444-.02-2.13-.048v5.282c.688.017 1.397.028 2.13.028" fill="#fff"/><g fill="#fff"><path d="M312.026 62.057c-1.858 0-3.369 1.51-3.369 3.366s1.51 3.365 3.369 3.365c1.852 0 3.362-1.51 3.362-3.365s-1.51-3.366-3.362-3.366m0 7.231a3.87 3.87 0 01-3.869-3.865 3.868 3.868 0 113.869 3.865"/><path d="M312.414 65.362c.606 0 .956-.175.956-.825 0-.642-.34-.789-.975-.789h-1.358v1.614h1.377zm-.138.555h-1.239v1.708h-.591v-4.44h1.977c1.124 0 1.558.46 1.558 1.338 0 .716-.306 1.21-1.072 1.352l1.002 1.75h-.641l-.994-1.708z"/></g></svg>